<svg width="84" height="84" viewBox="0 0 84 84" fill="none" xmlns="http://www.w3.org/2000/svg">
<path d="M78.75 0H4.58333C3.36776 0 2.20197 0.482886 1.34243 1.34243C0.482886 2.20197 0 3.36776 0 4.58333V78.75C0 79.9656 0.482886 81.1314 1.34243 81.9909C2.20197 82.8504 3.36776 83.3333 4.58333 83.3333H44.5V51.0417H33.6667V38.5417H44.5V29.1667C44.2756 26.9657 44.5354 24.7422 45.2613 22.6522C45.9872 20.5623 47.1615 18.6564 48.7019 17.0684C50.2424 15.4803 52.1116 14.2485 54.1784 13.4593C56.2453 12.6701 58.4598 12.3427 60.6667 12.5C63.9097 12.48 67.1512 12.647 70.375 13V24.25H63.75C58.5 24.25 57.5 26.75 57.5 30.375V38.4167H70L68.375 50.9167H57.5V83.3333H78.75C79.3519 83.3333 79.9479 83.2148 80.504 82.9844C81.06 82.7541 81.5653 82.4165 81.9909 81.9909C82.4165 81.5653 82.7541 81.06 82.9844 80.504C83.2148 79.9479 83.3333 79.3519 83.3333 78.75V4.58333C83.3333 3.98144 83.2148 3.38544 82.9844 2.82937C82.7541 2.27329 82.4165 1.76803 81.9909 1.34243C81.5653 0.916826 81.06 0.57922 80.504 0.348886C79.9479 0.118552 79.3519 0 78.75 0Z" fill="#F2D03B"/>
</svg>
