<svg width="205" height="204" viewBox="0 0 205 204" fill="none" xmlns="http://www.w3.org/2000/svg">
<g clip-path="url(#clip0_27_394)">
<path d="M59.5575 0.00634766H145.01C177.563 0.00634766 204.013 26.4559 204.013 59.0091V144.461C204.013 160.11 197.796 175.118 186.731 186.183C175.666 197.248 160.658 203.464 145.01 203.464H59.5575C27.0042 203.464 0.554688 177.015 0.554688 144.461V59.0091C0.554688 43.3606 6.77103 28.353 17.8362 17.2879C28.9014 6.22269 43.909 0.00634766 59.5575 0.00634766ZM57.5229 20.3521C47.81 20.3521 38.495 24.2106 31.6269 31.0786C24.7589 37.9466 20.9005 47.2617 20.9005 56.9745V146.496C20.9005 166.74 37.2788 183.118 57.5229 183.118H147.044C156.757 183.118 166.072 179.26 172.94 172.392C179.808 165.524 183.667 156.209 183.667 146.496V56.9745C183.667 36.7305 167.288 20.3521 147.044 20.3521H57.5229ZM155.691 35.6115C159.064 35.6115 162.298 36.9512 164.683 39.3359C167.068 41.7207 168.407 44.9551 168.407 48.3276C168.407 51.7001 167.068 54.9345 164.683 57.3192C162.298 59.704 159.064 61.0437 155.691 61.0437C152.319 61.0437 149.084 59.704 146.7 57.3192C144.315 54.9345 142.975 51.7001 142.975 48.3276C142.975 44.9551 144.315 41.7207 146.7 39.3359C149.084 36.9512 152.319 35.6115 155.691 35.6115ZM102.284 50.8708C115.774 50.8708 128.711 56.2297 138.25 65.7687C147.789 75.3076 153.148 88.2452 153.148 101.735C153.148 115.225 147.789 128.163 138.25 137.702C128.711 147.241 115.774 152.6 102.284 152.6C88.7935 152.6 75.8559 147.241 66.317 137.702C56.7781 128.163 51.4191 115.225 51.4191 101.735C51.4191 88.2452 56.7781 75.3076 66.317 65.7687C75.8559 56.2297 88.7935 50.8708 102.284 50.8708ZM102.284 71.2166C94.1895 71.2166 86.427 74.4319 80.7036 80.1553C74.9803 85.8787 71.7649 93.6412 71.7649 101.735C71.7649 109.829 74.9803 117.592 80.7036 123.315C86.427 129.039 94.1895 132.254 102.284 132.254C110.378 132.254 118.14 129.039 123.864 123.315C129.587 117.592 132.802 109.829 132.802 101.735C132.802 93.6412 129.587 85.8787 123.864 80.1553C118.14 74.4319 110.378 71.2166 102.284 71.2166Z" fill="#F2D03B"/>
</g>
<defs>
<clipPath id="clip0_27_394">
<rect width="203.458" height="203.458" fill="white" transform="translate(0.554688 0.00634766)"/>
</clipPath>
</defs>
</svg>
