<svg width="204" height="204" viewBox="0 0 204 204" fill="none" xmlns="http://www.w3.org/2000/svg">
<g clip-path="url(#clip0_668_111)">
<path d="M59.0028 0H144.455C177.008 0 203.458 26.4495 203.458 59.0028V144.455C203.458 160.104 197.241 175.111 186.176 186.176C175.111 197.241 160.104 203.458 144.455 203.458H59.0028C26.4495 203.458 0 177.008 0 144.455V59.0028C0 43.3543 6.21635 28.3467 17.2815 17.2815C28.3467 6.21635 43.3543 0 59.0028 0ZM56.9682 20.3458C47.2553 20.3458 37.9403 24.2042 31.0722 31.0722C24.2042 37.9403 20.3458 47.2553 20.3458 56.9682V146.49C20.3458 166.734 36.7241 183.112 56.9682 183.112H146.49C156.203 183.112 165.518 179.254 172.386 172.386C179.254 165.518 183.112 156.203 183.112 146.49V56.9682C183.112 36.7241 166.734 20.3458 146.49 20.3458H56.9682ZM155.137 35.6051C158.509 35.6051 161.744 36.9449 164.128 39.3296C166.513 41.7143 167.853 44.9487 167.853 48.3212C167.853 51.6938 166.513 54.9282 164.128 57.3129C161.744 59.6976 158.509 61.0373 155.137 61.0373C151.764 61.0373 148.53 59.6976 146.145 57.3129C143.76 54.9282 142.42 51.6938 142.42 48.3212C142.42 44.9487 143.76 41.7143 146.145 39.3296C148.53 36.9449 151.764 35.6051 155.137 35.6051ZM101.729 50.8645C115.219 50.8645 128.157 56.2234 137.696 65.7623C147.234 75.3012 152.593 88.2388 152.593 101.729C152.593 115.219 147.234 128.157 137.696 137.696C128.157 147.234 115.219 152.593 101.729 152.593C88.2388 152.593 75.3012 147.234 65.7623 137.696C56.2234 128.157 50.8645 115.219 50.8645 101.729C50.8645 88.2388 56.2234 75.3012 65.7623 65.7623C75.3012 56.2234 88.2388 50.8645 101.729 50.8645ZM101.729 71.2102C93.6349 71.2102 85.8723 74.4256 80.149 80.149C74.4256 85.8723 71.2102 93.6349 71.2102 101.729C71.2102 109.823 74.4256 117.586 80.149 123.309C85.8723 129.032 93.6349 132.248 101.729 132.248C109.823 132.248 117.586 129.032 123.309 123.309C129.032 117.586 132.248 109.823 132.248 101.729C132.248 93.6349 129.032 85.8723 123.309 80.149C117.586 74.4256 109.823 71.2102 101.729 71.2102Z" fill="white"/>
</g>
<defs>
<clipPath id="clip0_668_111">
<rect width="203.458" height="203.458" fill="white"/>
</clipPath>
</defs>
</svg>
